<svg width="20" height="20" viewBox="0 0 20 20" fill="none" xmlns="http://www.w3.org/2000/svg">
<mask id="mask0_1785_10310" style="mask-type:alpha" maskUnits="userSpaceOnUse" x="0" y="0" width="20" height="20">
<rect width="20" height="20" fill="#D9D9D9"/>
</mask>
<g mask="url(#mask0_1785_10310)">
<path d="M1.66663 19.1666V15.8333H18.3333V19.1666H1.66663ZM3.33329 14.1666V11.0416L10.875 3.49993L14 6.62493L6.45829 14.1666H3.33329ZM4.99996 12.4999H5.74996L11.6666 6.62493L10.875 5.83326L4.99996 11.7499V12.4999ZM14.9375 5.70826L11.8125 2.58326L13.3125 1.08326C13.4652 0.916595 13.6597 0.836734 13.8958 0.843678C14.1319 0.850623 14.3263 0.930484 14.4791 1.08326L16.4375 3.0416C16.5902 3.19437 16.6666 3.38535 16.6666 3.61451C16.6666 3.84368 16.5902 4.0416 16.4375 4.20826L14.9375 5.70826Z" fill="#888888"/>
</g>
</svg>
